<svg width="223" height="88" viewBox="0 0 223 88" fill="none" xmlns="http://www.w3.org/2000/svg">
<path d="M24.2335 39.4897L14.368 64.0998H9.9161L0 39.4897H4.14867L12.1421 60.162L20.0849 39.4897H24.2335ZM36.4765 61.1464C39.8827 61.1464 42.328 59.7684 43.8124 57.0122H47.9608C47.1383 59.1723 45.6883 61.0534 43.7872 62.4266C41.8812 63.8047 39.4274 64.4936 36.4259 64.4934C32.6142 64.4934 29.5113 63.2631 27.1171 60.8023C24.79 58.407 23.6264 55.4045 23.6264 51.7947C23.6264 48.1525 24.7394 45.15 26.9655 42.7872C29.3258 40.3262 32.395 39.0959 36.1732 39.0961C39.9501 39.0961 43.0193 40.3264 45.3808 42.7872C47.6068 45.1502 48.7198 48.1527 48.7198 51.7947V53.2712H27.5219C27.7268 55.4059 28.7145 57.3978 30.3046 58.8823C31.9233 60.3923 33.9807 61.147 36.4765 61.1464ZM36.1732 42.443C34.0093 42.3839 31.906 43.1423 30.3046 44.5594C28.794 45.9536 27.8283 47.8153 27.5725 49.8258H44.7737C44.5173 47.8155 43.5516 45.9541 42.0416 44.5594C40.4401 43.1425 38.3369 42.3841 36.1732 42.443ZM54.8913 39.4897V43.3286C55.8098 42.1406 56.9409 41.1236 58.2305 40.3262C59.5759 39.4977 61.1409 39.0702 62.7331 39.0959C64.2146 39.0627 65.6898 39.2961 67.0841 39.7848C68.2891 40.2387 69.3771 40.9445 70.2712 41.8522C72.362 43.8542 73.4077 46.4958 73.408 49.7769V64.0998H69.6135V49.8752C69.6135 47.6111 68.9558 45.8062 67.6403 44.4609C66.9832 43.793 66.1882 43.2678 65.3075 42.92C64.427 42.5722 63.4807 42.4097 62.5308 42.443C61.5328 42.4222 60.5406 42.5942 59.6113 42.9491C58.6821 43.3037 57.8346 43.8344 57.1174 44.5098C56.381 45.213 55.8028 46.0573 55.4195 46.9895C55.0364 47.9216 54.8565 48.9209 54.8913 49.9242V64.0998H51.0971V39.4895L54.8913 39.4897ZM79.5801 64.0998V42.7383H74.4199V39.4895H79.5801V30.6794H83.3747V39.4897H89.1926V42.7383H83.3747V64.0998H79.5801ZM104.42 39.0959V42.7872H103.965C102.67 42.7627 101.388 43.0403 100.226 43.597C99.064 44.1537 98.0562 44.9731 97.2868 45.9869C95.6492 48.0755 94.7925 50.645 94.8582 53.2712V64.0998H91.064V39.4897H94.8582V45.5438C95.6678 42.9844 97.4216 41.0977 100.12 39.8833C101.39 39.3267 102.774 39.0575 104.167 39.0959H104.42ZM125.314 60.162C123.291 63.0501 120.272 64.4939 116.258 64.4934C112.616 64.4934 109.648 63.2631 107.354 60.8023C105.128 58.3741 104.015 55.3716 104.015 51.7947C104.015 48.2187 105.128 45.2162 107.354 42.7872C109.647 40.3262 112.7 39.0959 116.511 39.0961C120.322 39.0961 123.257 40.5563 125.314 43.4764V39.4897H129.109V64.0998H125.314V60.162ZM116.764 61.1464C119.496 61.1464 121.655 60.2278 123.24 58.3903C124.758 56.6512 125.517 54.4528 125.517 51.7947C125.517 49.137 124.758 46.9384 123.24 45.1991C121.654 43.3617 119.496 42.443 116.764 42.443C114.066 42.443 111.873 43.3617 110.188 45.1991C108.602 46.9386 107.809 49.1372 107.81 51.7947C107.81 54.4525 108.602 56.6509 110.188 58.3903C111.874 60.2281 114.066 61.1469 116.764 61.1464Z" fill="#19171C"/>
<path d="M137.559 39.4925V64.1028H133.048V39.4925H137.559ZM133.016 30.6603V35.702H137.52V30.6603H133.016ZM166.951 51.7936C166.951 55.4422 165.78 58.5516 163.469 61.0347C161.151 63.5595 157.997 64.8406 154.098 64.8406C150.564 64.8406 147.728 63.6013 145.652 61.1544V73.8541H141.142V39.4925H145.652V42.3861C147.72 39.97 150.64 38.7466 154.35 38.7466C158.082 38.7466 161.151 40.0277 163.47 42.5539C165.78 45.0361 166.951 48.1455 166.951 51.7936ZM147.643 45.422C146.187 47.0898 145.45 49.2333 145.45 51.7936C145.45 54.3542 146.187 56.4978 147.642 58.1637C149.149 59.9114 151.236 60.797 153.844 60.797C155.031 60.8339 156.211 60.6164 157.301 60.1603C158.392 59.7041 159.366 59.0202 160.154 58.157C161.672 56.4928 162.441 54.3511 162.441 51.7936C162.441 49.2366 161.672 47.0948 160.154 45.4288C159.365 44.5661 158.391 43.8827 157.301 43.4266C156.211 42.9706 155.031 42.7533 153.844 42.7902C151.236 42.7902 149.149 43.6758 147.643 45.422Z" fill="#19171C" fill-opacity="0.8"/>
<path d="M181.923 40.7238C181.802 37.8794 181.433 35.0502 180.822 32.2663C176.928 30.8545 172.954 29.6591 168.923 28.6858C178.705 43.973 177.996 61.5745 166.794 81.4905C171.128 76.2228 174.695 70.3972 177.39 64.1792C180.717 56.3678 182.243 48.4763 181.923 40.7238Z" fill="#19171C"/>
<path d="M193.326 32.658C193.853 27.9066 193.727 23.108 192.95 18.3891C186.59 15.6714 180.027 13.4248 173.319 11.6684C190.957 37.9392 181.844 61.672 173.077 75.2799C177.106 70.5238 180.699 65.4366 183.823 60.0755C189.154 50.8319 192.352 41.6072 193.326 32.658Z" fill="#19171C"/>
<path d="M199.955 62.8241C200.054 62.7266 200.147 62.6291 200.244 62.5316C203.504 59.2712 206.509 55.7803 209.237 52.0873L209.248 52.072C209.562 51.6464 209.867 51.2228 210.166 50.8008C210.176 50.787 210.186 50.7731 210.195 50.7592C210.491 50.3411 210.78 49.925 211.061 49.5106C211.073 49.4941 211.084 49.4775 211.095 49.4609C211.378 49.0453 211.654 48.6319 211.923 48.2205L211.949 48.1811C212.22 47.7653 212.485 47.352 212.744 46.9411L212.758 46.9183C222.266 31.7734 222.884 19.8167 222.884 19.8167C210.743 8.45402 187.898 0 187.898 0C197.593 17.3127 196.285 34.1586 190.966 48.3716C190.702 49.0734 190.431 49.7686 190.148 50.4572C190.128 50.5042 190.109 50.5511 190.09 50.5981C189.97 50.8909 189.847 51.1825 189.725 51.473C189.702 51.5263 189.679 51.5794 189.657 51.6327C189.523 51.947 189.385 52.26 189.248 52.5716L189.228 52.6152C188.928 53.2922 188.619 53.962 188.302 54.6247C188.288 54.6564 188.273 54.6878 188.257 54.7194C188.118 55.0123 187.976 55.3039 187.834 55.5941C187.811 55.6397 187.789 55.6853 187.766 55.7309C187.617 56.0291 187.469 56.3256 187.318 56.6206C187.309 56.6398 187.299 56.6592 187.289 56.6784C186.958 57.33 186.619 57.9739 186.274 58.6102L186.255 58.6453C186.095 58.9406 185.934 59.2342 185.77 59.5259C185.749 59.565 185.727 59.6041 185.706 59.6431C185.547 59.9244 185.391 60.2039 185.231 60.482C185.218 60.5061 185.203 60.5303 185.19 60.5544C184.662 61.4741 184.125 62.3755 183.579 63.2584C183.56 63.2903 183.54 63.322 183.519 63.3536C183.354 63.6216 183.188 63.8877 183.02 64.1522C183.005 64.1756 182.991 64.1992 182.976 64.2227C182.424 65.0947 181.865 65.947 181.301 66.7797L181.257 66.8444C181.084 67.0994 180.911 67.3523 180.738 67.6034L180.687 67.678C180.121 68.4959 179.554 69.293 178.985 70.0691L178.953 70.1134C178.776 70.3538 178.6 70.5919 178.424 70.8278L178.369 70.9017C177.8 71.6645 177.233 72.405 176.668 73.1233L176.666 73.1264C176.483 73.3581 176.302 73.5873 176.122 73.8141L176.07 73.8787C175.892 74.1005 175.716 74.32 175.54 74.537L175.524 74.5566C174.968 75.242 174.418 75.9036 173.877 76.5413L173.827 76.6003C173.659 76.7967 173.494 76.9908 173.329 77.1827L173.297 77.2197C172.764 77.8386 172.242 78.4325 171.729 79.0013L171.689 79.047C171.532 79.2214 171.377 79.3933 171.224 79.5627L171.183 79.6073C170.684 80.1558 170.199 80.6781 169.73 81.1745L169.693 81.2139C169.553 81.3633 169.412 81.5102 169.275 81.6545L169.221 81.7113C169.074 81.8641 168.931 82.0144 168.788 82.162L168.787 82.1628C168.488 82.4717 168.199 82.768 167.917 83.0519L167.89 83.0808C167.764 83.208 167.639 83.3327 167.518 83.4545L167.465 83.508C167.345 83.6267 167.229 83.743 167.114 83.8567L167.077 83.8931C166.82 84.1478 166.573 84.3898 166.335 84.6191L166.319 84.6348C166.213 84.7381 166.109 84.8387 166.007 84.9366L165.946 84.9944C165.852 85.0853 165.758 85.1741 165.668 85.2603L165.631 85.2962C165.419 85.4972 165.219 85.685 165.031 85.8597L165.023 85.8677C164.936 85.9484 164.852 86.0262 164.771 86.1009L164.724 86.1448C164.653 86.2095 164.585 86.2719 164.521 86.3322L164.479 86.3698C164.246 86.5827 164.042 86.7664 163.869 86.9202L163.827 86.9578C163.785 86.9945 163.747 87.0297 163.709 87.0627L163.667 87.0989C163.629 87.1342 163.59 87.1675 163.556 87.1981L163.538 87.2131C163.496 87.2494 163.459 87.2823 163.425 87.3117L163.407 87.3269C163.383 87.3484 163.359 87.3686 163.339 87.3863L163.273 87.4436L163.252 87.4613L163.228 87.4822L163.217 87.4914L163.207 87.5C164.086 87.0978 164.952 86.692 165.805 86.2828C166.091 86.1459 166.368 86.0069 166.65 85.8694C167.213 85.5959 167.777 85.3228 168.328 85.0466C168.662 84.8784 168.989 84.708 169.32 84.5387C169.808 84.29 170.296 84.0419 170.774 83.7911C171.122 83.6089 171.461 83.4247 171.804 83.2414C172.255 83.0008 172.705 82.7608 173.148 82.5184C173.497 82.3272 173.838 82.1342 174.181 81.942C174.606 81.7048 175.031 81.4681 175.448 81.2294C175.793 81.0311 176.133 80.8316 176.474 80.6322C176.876 80.3973 177.279 80.1627 177.674 79.9266C178.017 79.7217 178.353 79.5159 178.689 79.3102C179.072 79.0773 179.454 78.8445 179.828 78.6105C180.166 78.4002 180.497 78.1887 180.83 77.9773C181.194 77.7459 181.556 77.5144 181.913 77.2819C182.244 77.0667 182.571 76.8508 182.896 76.6347C183.243 76.4047 183.587 76.1745 183.928 75.9434C184.253 75.723 184.575 75.502 184.894 75.2806C185.223 75.0528 185.551 74.8245 185.874 74.5959C186.194 74.3705 186.509 74.1448 186.822 73.9187C187.136 73.6928 187.446 73.4667 187.753 73.2403C188.065 73.0102 188.375 72.7797 188.682 72.5489C188.98 72.3259 189.274 72.1027 189.565 71.8792C189.872 71.6434 190.177 71.4073 190.479 71.1712C190.759 70.9527 191.035 70.7337 191.308 70.5147C191.612 70.2728 191.914 70.0309 192.211 69.7886C192.473 69.5756 192.73 69.3623 192.987 69.1491C193.288 68.8994 193.587 68.6497 193.882 68.3997C194.123 68.1956 194.357 67.9913 194.595 67.787C194.896 67.5275 195.196 67.268 195.49 67.0081C195.707 66.8158 195.92 66.6233 196.135 66.4309C196.437 66.1584 196.741 65.8861 197.038 65.6136C197.227 65.4394 197.412 65.2652 197.599 65.0909C197.909 64.8002 198.223 64.5094 198.527 64.2184C198.68 64.0717 198.827 63.9252 198.979 63.7784C199.307 63.4602 199.637 63.142 199.955 62.8241Z" fill="#19171C"/>
</svg>
